<?xml version="1.0" encoding="UTF-8" standalone="no"?>
<svg
   height="128"
   width="128"
   version="1.1"
   id="svg24"
   sodipodi:docname="icon.svg"
   inkscape:version="1.2.2 (732a01da63, 2022-12-09)"
   xmlns:inkscape="http://www.inkscape.org/namespaces/inkscape"
   xmlns:sodipodi="http://sodipodi.sourceforge.net/DTD/sodipodi-0.dtd"
   xmlns="http://www.w3.org/2000/svg"
   xmlns:svg="http://www.w3.org/2000/svg">
  <defs
     id="defs28" />
  <sodipodi:namedview
     id="namedview26"
     pagecolor="#ffffff"
     bordercolor="#000000"
     borderopacity="0.25"
     inkscape:showpageshadow="2"
     inkscape:pageopacity="0.0"
     inkscape:pagecheckerboard="0"
     inkscape:deskcolor="#d1d1d1"
     showgrid="false"
     inkscape:zoom="6.359375"
     inkscape:cx="64.078624"
     inkscape:cy="64.078624"
     inkscape:window-width="1920"
     inkscape:window-height="1001"
     inkscape:window-x="-9"
     inkscape:window-y="-9"
     inkscape:window-maximized="1"
     inkscape:current-layer="svg24" />
  <rect
     x="2"
     y="2"
     width="124"
     height="124"
     rx="14"
     fill="#363d52"
     stroke="#212532"
     stroke-width="4"
     id="rect2" />
  <path
     fill="#8eef97"
     d="m 87.49842,9.4324324 a 7.8065988,7.8065988 0 0 0 -7.806598,7.8065986 v 23.419797 a 7.8065988,7.8065988 0 0 0 7.806598,7.806598 h 23.4198 a 7.8065988,7.8065988 0 0 0 7.8066,-7.806598 V 17.239031 a 7.8065988,7.8065988 0 0 0 -7.8066,-7.8065986 z M 54.179857,40.658828 a 15.613198,15.613198 0 0 1 2.092168,7.806598 v 8.719971 l 17.705366,-8.719971 a 15.613198,15.613198 0 0 1 -2.092168,-7.806598 v -8.719971 z m -36.940826,0 a 7.8065988,7.8065988 0 0 0 -7.8065986,7.806598 v 31.226396 a 7.8065988,7.8065988 0 0 0 7.8065986,7.806598 h 23.419797 a 7.8065988,7.8065988 0 0 0 7.806598,-7.806598 V 48.465426 a 7.8065988,7.8065988 0 0 0 -7.806598,-7.806598 z m 39.032994,30.313023 v 8.719971 a 15.613198,15.613198 0 0 1 -2.092168,7.806598 l 17.705366,8.719971 V 87.49842 a 15.613198,15.613198 0 0 1 2.092168,-7.806598 z m 31.226395,8.719971 a 7.8065988,7.8065988 0 0 0 -7.806598,7.806598 v 23.4198 a 7.8065988,7.8065988 0 0 0 7.806598,7.8066 h 23.4198 a 7.8065988,7.8065988 0 0 0 7.8066,-7.8066 v -23.4198 a 7.8065988,7.8065988 0 0 0 -7.8066,-7.806598 z"
     id="path2"
     style="fill:#6cbac6;fill-opacity:1;stroke-width:7.8066" />
</svg>
