<?xml version="1.0" encoding="UTF-8" standalone="no"?>
<svg
   width="16"
   height="16"
   version="1.1"
   id="svg12"
   sodipodi:docname="GraphEdit.svg"
   inkscape:export-filename="GraphEditGrey.svg"
   inkscape:export-xdpi="96"
   inkscape:export-ydpi="96"
   xmlns:inkscape="http://www.inkscape.org/namespaces/inkscape"
   xmlns:sodipodi="http://sodipodi.sourceforge.net/DTD/sodipodi-0.dtd"
   xmlns="http://www.w3.org/2000/svg"
   xmlns:svg="http://www.w3.org/2000/svg">
  <defs
     id="defs16" />
  <sodipodi:namedview
     id="namedview14"
     pagecolor="#ffffff"
     bordercolor="#000000"
     borderopacity="0.25"
     inkscape:showpageshadow="2"
     inkscape:pageopacity="0.0"
     inkscape:pagecheckerboard="0"
     inkscape:deskcolor="#d1d1d1"
     showgrid="false" />
  <path
     fill="#8eef97"
     d="m 11,1 a 1,1 0 0 0 -1,1 v 3 a 1,1 0 0 0 1,1 h 3 A 1,1 0 0 0 15,5 V 2 A 1,1 0 0 0 14,1 Z M 6.732,5 A 2,2 0 0 1 7,6 V 7.117 L 9.268,6 A 2,2 0 0 1 9,5 V 3.883 Z M 2,5 A 1,1 0 0 0 1,6 v 4 a 1,1 0 0 0 1,1 H 5 A 1,1 0 0 0 6,10 V 6 A 1,1 0 0 0 5,5 Z M 7,8.883 V 10 A 2,2 0 0 1 6.732,11 L 9,12.117 V 11 A 2,2 0 0 1 9.268,10 Z M 11,10 a 1,1 0 0 0 -1,1 v 3 a 1,1 0 0 0 1,1 h 3 a 1,1 0 0 0 1,-1 v -3 a 1,1 0 0 0 -1,-1 z"
     id="path10"
     style="fill:#717171;fill-opacity:1" />
</svg>
